<?xml version="1.0" encoding="UTF-8"?>
<!DOCTYPE svg PUBLIC "-//W3C//DTD SVG 1.1//EN" "http://www.w3.org/Graphics/SVG/1.1/DTD/svg11.dtd">
<svg xmlns="http://www.w3.org/2000/svg" version="1.1" width="180px" height="73px" style="shape-rendering:geometricPrecision; text-rendering:geometricPrecision; image-rendering:optimizeQuality; fill-rule:evenodd; clip-rule:evenodd" xmlns:xlink="http://www.w3.org/1999/xlink">
<g><path style="opacity:1" fill="#ae992e" d="M 93.5,19.5 C 90.075,19.3668 89.7417,20.0335 92.5,21.5C 89.7716,21.5618 86.9383,21.5618 84,21.5C 83.51,22.7932 83.3433,24.1266 83.5,25.5C 82.8333,25.5 82.1667,25.5 81.5,25.5C 81.5,23.8333 81.5,22.1667 81.5,20.5C 85.3695,17.1836 89.3695,16.8503 93.5,19.5 Z"/></g>
<g><path style="opacity:0.965" fill="#d6d3ca" d="M 93.5,19.5 C 96.5902,20.665 97.9236,22.9983 97.5,26.5C 97.1667,26.5 96.8333,26.5 96.5,26.5C 95.8689,24.0656 94.8689,21.7323 93.5,19.5 Z"/></g>
<g><path style="opacity:1" fill="#5e5120" d="M 92.5,21.5 C 93.4345,22.5676 93.7678,23.901 93.5,25.5C 90.1667,24.1667 86.8333,24.1667 83.5,25.5C 83.3433,24.1266 83.51,22.7932 84,21.5C 86.9383,21.5618 89.7716,21.5618 92.5,21.5 Z"/></g>
<g><path style="opacity:1" fill="#eccd13" d="M 81.5,25.5 C 82.1667,25.5 82.8333,25.5 83.5,25.5C 83.9175,26.2216 84.5842,26.7216 85.5,27C 84.062,27.2189 82.7287,27.7189 81.5,28.5C 81.6236,29.1067 81.9569,29.44 82.5,29.5C 84.2419,34.3026 84.9085,39.3026 84.5,44.5C 83.8333,45.8333 83.1667,45.8333 82.5,44.5C 82.6653,40.8183 82.4986,37.1516 82,33.5C 81.7508,32.376 81.2508,31.376 80.5,30.5C 79.8933,30.6236 79.56,30.9569 79.5,31.5C 79.1667,31.5 78.8333,31.5 78.5,31.5C 78.1667,31.5 77.8333,31.5 77.5,31.5C 78.5981,30.603 78.5981,29.7697 77.5,29C 78.4158,28.7216 79.0825,28.2216 79.5,27.5C 80.5,27.1667 81.1667,26.5 81.5,25.5 Z"/></g>
<g><path style="opacity:0.761" fill="#867e57" d="M 81.5,20.5 C 81.5,22.1667 81.5,23.8333 81.5,25.5C 81.1667,26.5 80.5,27.1667 79.5,27.5C 79.1667,27.5 78.8333,27.5 78.5,27.5C 79.8689,25.2677 80.8689,22.9344 81.5,20.5 Z"/></g>
<g><path style="opacity:1" fill="#ae9923" d="M 93.5,25.5 C 93.0825,26.2216 92.4158,26.7216 91.5,27C 92.938,27.2189 94.2713,27.7189 95.5,28.5C 95.3764,29.1067 95.0431,29.44 94.5,29.5C 93.3991,28.4017 92.0657,28.235 90.5,29C 92.4951,29.9236 92.8284,31.0903 91.5,32.5C 90.1979,30.9724 88.5313,29.9724 86.5,29.5C 85.1667,28.1667 83.8333,28.1667 82.5,29.5C 81.9569,29.44 81.6236,29.1067 81.5,28.5C 82.7287,27.7189 84.062,27.2189 85.5,27C 84.5842,26.7216 83.9175,26.2216 83.5,25.5C 86.8333,24.1667 90.1667,24.1667 93.5,25.5 Z"/></g>
<g><path style="opacity:1" fill="#e7c016" d="M 93.5,19.5 C 94.8689,21.7323 95.8689,24.0656 96.5,26.5C 97.0998,27.8999 98.0998,28.8999 99.5,29.5C 98.0048,29.9887 96.6715,30.6554 95.5,31.5C 94.6274,35.7685 94.2941,40.1018 94.5,44.5C 93.8333,45.8333 93.1667,45.8333 92.5,44.5C 92.5,42.8333 92.5,41.1667 92.5,39.5C 92.3107,35.963 92.9774,32.6297 94.5,29.5C 95.0431,29.44 95.3764,29.1067 95.5,28.5C 94.2713,27.7189 92.938,27.2189 91.5,27C 92.4158,26.7216 93.0825,26.2216 93.5,25.5C 93.7678,23.901 93.4345,22.5676 92.5,21.5C 89.7417,20.0335 90.075,19.3668 93.5,19.5 Z"/></g>
<g><path style="opacity:0.992" fill="#976822" d="M 66.5,30.5 C 65.6016,31.1577 64.6016,31.8243 63.5,32.5C 65.1045,34.1789 65.7711,36.1789 65.5,38.5C 64.7321,37.7375 64.2321,36.7375 64,35.5C 62.7909,39.2678 63.7909,42.2678 67,44.5C 67.3988,44.2716 67.5654,43.9382 67.5,43.5C 70.1477,45.2565 69.8143,46.5899 66.5,47.5C 64.4998,45.329 62.6665,42.9957 61,40.5C 60.7879,37.6685 60.6213,35.0018 60.5,32.5C 55.1393,34.2877 53.1393,37.9544 54.5,43.5C 53.596,44.209 53.2627,45.209 53.5,46.5C 52.1402,44.9537 51.1402,43.1204 50.5,41C 52.8537,32.6708 58.1871,29.1708 66.5,30.5 Z"/></g>
<g><path style="opacity:1" fill="#c39021" d="M 78.5,27.5 C 78.8333,27.5 79.1667,27.5 79.5,27.5C 79.0825,28.2216 78.4158,28.7216 77.5,29C 78.5981,29.7697 78.5981,30.603 77.5,31.5C 76.8333,31.5 76.1667,31.5 75.5,31.5C 76.6428,29.8993 75.9761,29.2326 73.5,29.5C 67.9055,30.5784 66.0722,33.9117 68,39.5C 69.2775,41.7472 70.7775,43.7472 72.5,45.5C 72.8333,46.1667 73.1667,46.8333 73.5,47.5C 72.8333,47.5 72.1667,47.5 71.5,47.5C 70.1667,47.8333 68.8333,48.1667 67.5,48.5C 66.8333,48.5 66.5,48.1667 66.5,47.5C 69.8143,46.5899 70.1477,45.2565 67.5,43.5C 67.1075,41.7162 66.4408,40.0495 65.5,38.5C 65.7711,36.1789 65.1045,34.1789 63.5,32.5C 64.6016,31.8243 65.6016,31.1577 66.5,30.5C 69.7809,26.7293 73.7809,25.7293 78.5,27.5 Z"/></g>
<g><path style="opacity:1" fill="#f1d010" d="M 86.5,29.5 C 88.5313,29.9724 90.1979,30.9724 91.5,32.5C 91.5,33.8333 91.5,35.1667 91.5,36.5C 90.5318,38.6074 90.1984,40.9407 90.5,43.5C 89.1667,43.5 87.8333,43.5 86.5,43.5C 86.5781,39.046 85.9114,34.7127 84.5,30.5C 84.9569,29.7025 85.6236,29.3691 86.5,29.5 Z"/></g>
<g><path style="opacity:1" fill="#c39325" d="M 96.5,26.5 C 96.8333,26.5 97.1667,26.5 97.5,26.5C 101.372,26.2422 105.039,26.9089 108.5,28.5C 110.606,30.7188 111.606,33.3855 111.5,36.5C 111.278,39.5042 110.278,42.1708 108.5,44.5C 107.094,44.9731 106.427,45.9731 106.5,47.5C 104.833,47.5 103.167,47.5 101.5,47.5C 101.5,47.1667 101.5,46.8333 101.5,46.5C 101.5,46.1667 101.5,45.8333 101.5,45.5C 103.144,45.7135 104.644,45.3802 106,44.5C 109.251,40.4016 110.084,35.9016 108.5,31C 105.649,29.7114 102.649,29.2114 99.5,29.5C 98.0998,28.8999 97.0998,27.8999 96.5,26.5 Z"/></g>
<g><path style="opacity:1" fill="#5e4818" d="M 99.5,29.5 C 102.649,29.2114 105.649,29.7114 108.5,31C 110.084,35.9016 109.251,40.4016 106,44.5C 104.644,45.3802 103.144,45.7135 101.5,45.5C 100.325,45.719 99.325,45.3857 98.5,44.5C 102.981,39.5487 103.314,34.5487 99.5,29.5 Z"/></g>
<g><path style="opacity:1" fill="#dca312" d="M 102.5,31.5 C 105.605,30.5339 107.605,31.8672 108.5,35.5C 107.36,38.2484 106.026,40.9151 104.5,43.5C 103.675,44.3857 102.675,44.719 101.5,44.5C 102.481,41.193 103.481,37.8596 104.5,34.5C 104.547,32.9623 103.88,31.9623 102.5,31.5 Z"/></g>
<g><path style="opacity:1" fill="#b8811e" d="M 108.5,28.5 C 110.062,28.7329 111.395,29.3995 112.5,30.5C 113.873,30.3433 115.207,30.51 116.5,31C 115.584,31.2784 114.918,31.7784 114.5,32.5C 117.842,38.4406 116.509,43.1073 110.5,46.5C 109.662,46.8417 109.328,47.5084 109.5,48.5C 108.209,48.7373 107.209,48.404 106.5,47.5C 106.427,45.9731 107.094,44.9731 108.5,44.5C 110.807,44.0685 112.64,42.4018 114,39.5C 114.52,37.7111 114.187,36.0444 113,34.5C 112.722,35.4158 112.222,36.0825 111.5,36.5C 111.606,33.3855 110.606,30.7188 108.5,28.5 Z"/></g>
<g><path style="opacity:1" fill="#543d18" d="M 114.5,32.5 C 121.267,33.6824 123.767,37.6824 122,44.5C 120.603,46.0703 119.103,47.4036 117.5,48.5C 114.617,49.8733 112.283,49.2066 110.5,46.5C 116.509,43.1073 117.842,38.4406 114.5,32.5 Z"/></g>
<g><path style="opacity:1" fill="#554820" d="M 94.5,29.5 C 92.9774,32.6297 92.3107,35.963 92.5,39.5C 91.596,38.791 91.2627,37.791 91.5,36.5C 91.5,35.1667 91.5,33.8333 91.5,32.5C 92.8284,31.0903 92.4951,29.9236 90.5,29C 92.0657,28.235 93.3991,28.4017 94.5,29.5 Z"/></g>
<g><path style="opacity:1" fill="#986526" d="M 112.5,30.5 C 114.288,29.3775 116.288,29.2109 118.5,30C 122.079,31.4098 124.412,33.9098 125.5,37.5C 126.148,42.8712 124.148,46.8712 119.5,49.5C 119.158,48.6618 118.492,48.3284 117.5,48.5C 119.103,47.4036 120.603,46.0703 122,44.5C 123.767,37.6824 121.267,33.6824 114.5,32.5C 114.918,31.7784 115.584,31.2784 116.5,31C 115.207,30.51 113.873,30.3433 112.5,30.5 Z"/></g>
<g><path style="opacity:1" fill="#352f27" d="M 95.5,31.5 C 98.244,31.2003 99.9106,32.367 100.5,35C 99.5518,38.9194 97.5518,42.086 94.5,44.5C 94.2941,40.1018 94.6274,35.7685 95.5,31.5 Z"/></g>
<g><path style="opacity:1" fill="#b47310" d="M 117.5,34.5 C 122.749,38.9755 122.416,43.1422 116.5,47C 115.167,47.6667 113.833,47.6667 112.5,47C 116.795,43.9069 118.462,39.7403 117.5,34.5 Z"/></g>
<g><path style="opacity:1" fill="#d1a91e" d="M 99.5,29.5 C 103.314,34.5487 102.981,39.5487 98.5,44.5C 99.325,45.3857 100.325,45.719 101.5,45.5C 101.5,45.8333 101.5,46.1667 101.5,46.5C 98.1667,46.5 94.8333,46.5 91.5,46.5C 91.3284,45.5084 91.6618,44.8417 92.5,44.5C 93.1667,45.8333 93.8333,45.8333 94.5,44.5C 97.5518,42.086 99.5518,38.9194 100.5,35C 99.9106,32.367 98.244,31.2003 95.5,31.5C 96.6715,30.6554 98.0048,29.9887 99.5,29.5 Z"/></g>
<g><path style="opacity:1" fill="#3f3627" d="M 108.5,44.5 C 110.278,42.1708 111.278,39.5042 111.5,36.5C 112.222,36.0825 112.722,35.4158 113,34.5C 114.187,36.0444 114.52,37.7111 114,39.5C 112.64,42.4018 110.807,44.0685 108.5,44.5 Z"/></g>
<g><path style="opacity:1" fill="#3f250e" d="M 66.5,47.5 C 61.4967,49.9388 57.4967,48.6055 54.5,43.5C 53.1393,37.9544 55.1393,34.2877 60.5,32.5C 60.6213,35.0018 60.7879,37.6685 61,40.5C 62.6665,42.9957 64.4998,45.329 66.5,47.5 Z"/></g>
<g><path style="opacity:1" fill="#ac6c11" d="M 58.5,34.5 C 58.5063,39.5018 60.5063,43.6685 64.5,47C 58.3333,47.5 55.5,44.6667 56,38.5C 56.6622,37.0161 57.4955,35.6828 58.5,34.5 Z"/></g>
<g><path style="opacity:1" fill="#1b1716" d="M 78.5,31.5 C 78.8333,31.5 79.1667,31.5 79.5,31.5C 81.4894,35.4023 81.8227,39.4023 80.5,43.5C 76.6262,39.847 75.9596,35.847 78.5,31.5 Z"/></g>
<g><path style="opacity:1" fill="#493513" d="M 75.5,31.5 C 73.8163,36.3746 74.8163,40.7079 78.5,44.5C 77.675,45.3857 76.675,45.719 75.5,45.5C 74.5,45.5 73.5,45.5 72.5,45.5C 70.7775,43.7472 69.2775,41.7472 68,39.5C 66.0722,33.9117 67.9055,30.5784 73.5,29.5C 75.9761,29.2326 76.6428,29.8993 75.5,31.5 Z"/></g>
<g><path style="opacity:1" fill="#d8a113" d="M 71.5,30.5 C 72.552,30.3505 73.552,30.5172 74.5,31C 73.1955,31.804 72.5288,32.9707 72.5,34.5C 73.1536,37.9632 74.487,41.1299 76.5,44C 75.1667,44.6667 73.8333,44.6667 72.5,44C 70.0038,40.8635 68.8371,37.3635 69,33.5C 70.045,32.6266 70.8783,31.6266 71.5,30.5 Z"/></g>
<g><path style="opacity:1" fill="#1b140f" d="M 65.5,38.5 C 66.4408,40.0495 67.1075,41.7162 67.5,43.5C 67.5654,43.9382 67.3988,44.2716 67,44.5C 63.7909,42.2678 62.7909,39.2678 64,35.5C 64.2321,36.7375 64.7321,37.7375 65.5,38.5 Z"/></g>
<g><path style="opacity:1" fill="#d3af19" d="M 75.5,31.5 C 76.1667,31.5 76.8333,31.5 77.5,31.5C 77.8333,31.5 78.1667,31.5 78.5,31.5C 75.9596,35.847 76.6262,39.847 80.5,43.5C 80.8417,44.3382 81.5084,44.6716 82.5,44.5C 83.1667,45.8333 83.8333,45.8333 84.5,44.5C 85.3382,44.8417 85.6716,45.5084 85.5,46.5C 81.9581,46.8128 78.6248,46.4794 75.5,45.5C 76.675,45.719 77.675,45.3857 78.5,44.5C 74.8163,40.7079 73.8163,36.3746 75.5,31.5 Z"/></g>
<g><path style="opacity:1" fill="#615633" d="M 79.5,31.5 C 79.56,30.9569 79.8933,30.6236 80.5,30.5C 81.2508,31.376 81.7508,32.376 82,33.5C 82.4986,37.1516 82.6653,40.8183 82.5,44.5C 81.5084,44.6716 80.8417,44.3382 80.5,43.5C 81.8227,39.4023 81.4894,35.4023 79.5,31.5 Z"/></g>
<g><path style="opacity:1" fill="#73601d" d="M 86.5,29.5 C 85.6236,29.3691 84.9569,29.7025 84.5,30.5C 85.9114,34.7127 86.5781,39.046 86.5,43.5C 87.8333,43.5 89.1667,43.5 90.5,43.5C 90.1984,40.9407 90.5318,38.6074 91.5,36.5C 91.2627,37.791 91.596,38.791 92.5,39.5C 92.5,41.1667 92.5,42.8333 92.5,44.5C 91.6618,44.8417 91.3284,45.5084 91.5,46.5C 89.5,46.5 87.5,46.5 85.5,46.5C 85.6716,45.5084 85.3382,44.8417 84.5,44.5C 84.9085,39.3026 84.2419,34.3026 82.5,29.5C 83.8333,28.1667 85.1667,28.1667 86.5,29.5 Z"/></g>
<g><path style="opacity:0.992" fill="#ae9a86" d="M 53.5,46.5 C 55.7488,47.0798 57.4154,48.4131 58.5,50.5C 56.2512,49.9202 54.5846,48.5869 53.5,46.5 Z"/></g>
<g><path style="opacity:1" fill="#66571d" d="M 72.5,45.5 C 73.5,45.5 74.5,45.5 75.5,45.5C 78.6248,46.4794 81.9581,46.8128 85.5,46.5C 87.5,46.5 89.5,46.5 91.5,46.5C 94.8333,46.5 98.1667,46.5 101.5,46.5C 101.5,46.8333 101.5,47.1667 101.5,47.5C 100.833,48.1667 100.167,48.8333 99.5,49.5C 99.38,48.4138 98.7133,47.7472 97.5,47.5C 96.5836,47.5427 95.9169,47.8761 95.5,48.5C 94.8333,48.5 94.1667,48.5 93.5,48.5C 92.3991,47.4017 91.0657,47.235 89.5,48C 90.3366,49.0113 90.67,50.1779 90.5,51.5C 89.5,51.5 88.5,51.5 87.5,51.5C 86.3157,50.3121 86.3157,49.1455 87.5,48C 83.9733,47.1925 80.6399,47.3592 77.5,48.5C 76.2921,47.7659 74.9587,47.4326 73.5,47.5C 73.1667,46.8333 72.8333,46.1667 72.5,45.5 Z"/></g>
<g><path style="opacity:1" fill="#cbb027" d="M 87.5,51.5 C 86.1266,51.6567 84.7932,51.49 83.5,51C 83.9574,50.586 84.2907,50.086 84.5,49.5C 83.3112,48.5713 81.9778,48.238 80.5,48.5C 79.9114,52.2965 78.9114,52.2965 77.5,48.5C 80.6399,47.3592 83.9733,47.1925 87.5,48C 86.3157,49.1455 86.3157,50.3121 87.5,51.5 Z"/></g>
<g><path style="opacity:1" fill="#e2c420" d="M 93.5,48.5 C 92.8999,49.9002 91.8999,50.9002 90.5,51.5C 90.67,50.1779 90.3366,49.0113 89.5,48C 91.0657,47.235 92.3991,47.4017 93.5,48.5 Z"/></g>
<g><path style="opacity:1" fill="#ab7b22" d="M 54.5,43.5 C 57.4967,48.6055 61.4967,49.9388 66.5,47.5C 66.5,48.1667 66.8333,48.5 67.5,48.5C 66.791,49.404 65.791,49.7373 64.5,49.5C 64.5,51.5 64.5,53.5 64.5,55.5C 66.099,55.2322 67.4324,55.5655 68.5,56.5C 67.6236,56.3691 66.9569,56.7025 66.5,57.5C 69.8906,58.7169 73.2239,59.7169 76.5,60.5C 76.5,60.8333 76.5,61.1667 76.5,61.5C 74.5,61.5 72.5,61.5 70.5,61.5C 68.6976,60.5418 66.6976,59.8751 64.5,59.5C 62.1663,57.8243 61.1663,55.491 61.5,52.5C 61.0269,51.0937 60.0269,50.427 58.5,50.5C 57.4154,48.4131 55.7488,47.0798 53.5,46.5C 53.2627,45.209 53.596,44.209 54.5,43.5 Z"/></g>
<g><path style="opacity:1" fill="#d3a81a" d="M 72.5,48.5 C 74.0257,49.1047 75.0257,50.2714 75.5,52C 74.9056,52.4643 74.2389,52.631 73.5,52.5C 71.8906,51.3346 71.5573,50.0012 72.5,48.5 Z"/></g>
<g><path style="opacity:0.639" fill="#cac8c3" d="M 58.5,50.5 C 60.0269,50.427 61.0269,51.0937 61.5,52.5C 59.9731,52.573 58.9731,51.9063 58.5,50.5 Z"/></g>
<g><path style="opacity:1" fill="#4e3f16" d="M 71.5,47.5 C 72.1667,47.5 72.8333,47.5 73.5,47.5C 74.9587,47.4326 76.2921,47.7659 77.5,48.5C 78.9114,52.2965 79.9114,52.2965 80.5,48.5C 81.9778,48.238 83.3112,48.5713 84.5,49.5C 84.2907,50.086 83.9574,50.586 83.5,51C 84.7932,51.49 86.1266,51.6567 87.5,51.5C 88.5,51.5 89.5,51.5 90.5,51.5C 91.8999,50.9002 92.8999,49.9002 93.5,48.5C 94.1667,48.5 94.8333,48.5 95.5,48.5C 96.6527,49.3132 96.6527,50.3132 95.5,51.5C 88.198,52.5453 80.8647,53.212 73.5,53.5C 73.5,53.1667 73.5,52.8333 73.5,52.5C 74.2389,52.631 74.9056,52.4643 75.5,52C 75.0257,50.2714 74.0257,49.1047 72.5,48.5C 71.8333,48.5 71.5,48.1667 71.5,47.5 Z"/></g>
<g><path style="opacity:1" fill="#c7a71b" d="M 95.5,48.5 C 95.9169,47.8761 96.5836,47.5427 97.5,47.5C 98.7133,47.7472 99.38,48.4138 99.5,49.5C 98.2264,50.1894 98.2264,51.0228 99.5,52C 98.8333,52.3333 98.1667,52.6667 97.5,53C 98.8333,53.3333 100.167,53.6667 101.5,54C 97.8484,54.4986 94.1817,54.6653 90.5,54.5C 83.4707,54.3769 76.4707,54.7103 69.5,55.5C 70.8333,54.8333 72.1667,54.1667 73.5,53.5C 80.8647,53.212 88.198,52.5453 95.5,51.5C 96.6527,50.3132 96.6527,49.3132 95.5,48.5 Z"/></g>
<g><path style="opacity:1" fill="#634b1a" d="M 101.5,47.5 C 103.167,47.5 104.833,47.5 106.5,47.5C 107.209,48.404 108.209,48.7373 109.5,48.5C 112.021,50.0304 113.021,52.3637 112.5,55.5C 110.901,55.2322 109.568,55.5655 108.5,56.5C 102.366,55.9143 96.3664,55.2476 90.5,54.5C 94.1817,54.6653 97.8484,54.4986 101.5,54C 100.167,53.6667 98.8333,53.3333 97.5,53C 98.1667,52.6667 98.8333,52.3333 99.5,52C 98.2264,51.0228 98.2264,50.1894 99.5,49.5C 100.167,48.8333 100.833,48.1667 101.5,47.5 Z"/></g>
<g><path style="opacity:1" fill="#cda01d" d="M 101.5,49.5 C 102.708,48.218 104.042,48.218 105.5,49.5C 104.919,51.7236 103.586,52.557 101.5,52C 102.774,51.0228 102.774,50.1894 101.5,49.5 Z"/></g>
<g><path style="opacity:1" fill="#c78e14" d="M 109.5,50.5 C 111.176,51.1834 111.843,52.5168 111.5,54.5C 110.325,54.719 109.325,54.3857 108.5,53.5C 109.127,52.5832 109.461,51.5832 109.5,50.5 Z"/></g>
<g><path style="opacity:1" fill="#594116" d="M 71.5,47.5 C 71.5,48.1667 71.8333,48.5 72.5,48.5C 71.5573,50.0012 71.8906,51.3346 73.5,52.5C 73.5,52.8333 73.5,53.1667 73.5,53.5C 72.1667,54.1667 70.8333,54.8333 69.5,55.5C 69.5,56.1667 69.1667,56.5 68.5,56.5C 67.4324,55.5655 66.099,55.2322 64.5,55.5C 64.5,53.5 64.5,51.5 64.5,49.5C 65.791,49.7373 66.791,49.404 67.5,48.5C 68.8333,48.1667 70.1667,47.8333 71.5,47.5 Z"/></g>
<g><path style="opacity:1" fill="#c18b17" d="M 65.5,50.5 C 68.3881,51.5395 68.7214,52.8729 66.5,54.5C 65.5713,53.3112 65.238,51.9778 65.5,50.5 Z"/></g>
<g><path style="opacity:1" fill="#18140d" d="M 90.5,54.5 C 96.3664,55.2476 102.366,55.9143 108.5,56.5C 109.885,57.3023 109.718,57.9689 108,58.5C 97.5916,60.2883 87.0916,60.955 76.5,60.5C 73.2239,59.7169 69.8906,58.7169 66.5,57.5C 66.9569,56.7025 67.6236,56.3691 68.5,56.5C 69.1667,56.5 69.5,56.1667 69.5,55.5C 76.4707,54.7103 83.4707,54.3769 90.5,54.5 Z"/></g>
<g><path style="opacity:1" fill="#b68b1b" d="M 110.5,46.5 C 112.283,49.2066 114.617,49.8733 117.5,48.5C 118.492,48.3284 119.158,48.6618 119.5,49.5C 115.533,50.6429 113.699,53.3095 114,57.5C 112.829,58.8932 111.329,59.7265 109.5,60C 98.5438,61.3189 87.5438,61.8189 76.5,61.5C 76.5,61.1667 76.5,60.8333 76.5,60.5C 87.0916,60.955 97.5916,60.2883 108,58.5C 109.718,57.9689 109.885,57.3023 108.5,56.5C 109.568,55.5655 110.901,55.2322 112.5,55.5C 113.021,52.3637 112.021,50.0304 109.5,48.5C 109.328,47.5084 109.662,46.8417 110.5,46.5 Z"/></g>
<g><path style="opacity:0.634" fill="#e5e3dc" d="M 125.5,37.5 C 126.851,40.7723 126.684,44.1056 125,47.5C 122.512,49.7433 119.846,51.7433 117,53.5C 116.027,55.3921 115.36,57.3921 115,59.5C 106.815,62.4558 98.3154,63.7891 89.5,63.5C 82.9411,63.5893 76.6077,62.9227 70.5,61.5C 72.5,61.5 74.5,61.5 76.5,61.5C 87.5438,61.8189 98.5438,61.3189 109.5,60C 111.329,59.7265 112.829,58.8932 114,57.5C 113.699,53.3095 115.533,50.6429 119.5,49.5C 124.148,46.8712 126.148,42.8712 125.5,37.5 Z"/></g>
<g><path style="opacity:0.069" fill="#ededec" d="M 64.5,59.5 C 66.6976,59.8751 68.6976,60.5418 70.5,61.5C 67.9899,61.9465 65.9899,61.2798 64.5,59.5 Z"/></g>
</svg>
